<?xml version="1.0" encoding="UTF-8" standalone="no"?>
<!-- Created with Inkscape (http://www.inkscape.org/) -->
<svg
   xmlns:dc="http://purl.org/dc/elements/1.1/"
   xmlns:cc="http://creativecommons.org/ns#"
   xmlns:rdf="http://www.w3.org/1999/02/22-rdf-syntax-ns#"
   xmlns:svg="http://www.w3.org/2000/svg"
   xmlns="http://www.w3.org/2000/svg"
   xmlns:sodipodi="http://sodipodi.sourceforge.net/DTD/sodipodi-0.dtd"
   xmlns:inkscape="http://www.inkscape.org/namespaces/inkscape"
   id="svg2402"
   sodipodi:version="0.32"
   inkscape:version="0.46"
   width="357.5"
   height="290"
   xml:space="preserve"
   sodipodi:docname="helium.svg"
   inkscape:output_extension="org.inkscape.output.svg.inkscape"><metadata
     id="metadata2407"><rdf:RDF><cc:Work
         rdf:about=""><dc:format>image/svg+xml</dc:format><dc:type
           rdf:resource="http://purl.org/dc/dcmitype/StillImage" /></cc:Work></rdf:RDF></metadata><defs
     id="defs2405"><inkscape:perspective
       sodipodi:type="inkscape:persp3d"
       inkscape:vp_x="0 : 526.18109 : 1"
       inkscape:vp_y="0 : 1000 : 0"
       inkscape:vp_z="744.09448 : 526.18109 : 1"
       inkscape:persp3d-origin="372.04724 : 350.78739 : 1"
       id="perspective2409" /></defs><sodipodi:namedview
     inkscape:window-height="800"
     inkscape:window-width="1118"
     inkscape:pageshadow="2"
     inkscape:pageopacity="0.0"
     guidetolerance="10.0"
     gridtolerance="10.0"
     objecttolerance="10.0"
     borderopacity="1.0"
     bordercolor="#666666"
     pagecolor="#ffffff"
     id="base"
     showgrid="false"
     inkscape:zoom="1.7034483"
     inkscape:cx="178.75"
     inkscape:cy="145"
     inkscape:window-x="108"
     inkscape:window-y="24"
     inkscape:current-layer="g2411" /><g
     id="g2411"
     inkscape:groupmode="layer"
     inkscape:label="helium"
     transform="matrix(1.25,0,0,-1.25,0,290)"><g
       id="g2413"
       transform="scale(0.1,0.1)"><path
         d="M 88.3008,1035.07 C 83.8164,1439.37 718.449,1796.9 1505.81,1833.66 C 2128.57,1862.73 2660.34,1682.43 2857.67,1405.71 C 2638.98,1632.31 2169,1774.38 1626.26,1749.04 C 878.266,1714.12 275.363,1374.46 279.625,990.383 C 283.078,678.922 684.742,433.906 1235.39,371.012 C 584.586,408.758 92.2266,681.168 88.3008,1035.07"
         style="fill:#d3d3d3;fill-opacity:1;fill-rule:nonzero;stroke:none"
         id="path2415" /><path
         d="M 1548.5,2294.38 C 1948.66,2240.3 2228,1645.6 2172.42,966.051 C 2138.61,552.504 1988.54,202.84 1786.06,4.65625 C 1957.54,198.219 2082.38,510.453 2112.19,874.918 C 2164.98,1520.48 1899.61,2085.45 1519.46,2136.82 C 1139.31,2188.19 788.352,1706.51 735.555,1060.94 C 724.223,922.375 727.547,787.523 743.52,660.668 C 716.949,816.867 708.996,986.543 723.336,1161.86 C 778.91,1841.41 1148.34,2348.45 1548.5,2294.38"
         style="fill:#d3d3d3;fill-opacity:1;fill-rule:nonzero;stroke:none"
         id="path2417" /><path
         d="M 22.5859,1001.49 C 22.5859,1092.27 96.1797,1165.87 186.965,1165.87 C 277.746,1165.87 351.34,1092.27 351.34,1001.49 C 351.34,910.711 277.746,837.121 186.965,837.121 C 96.1797,837.121 22.5859,910.711 22.5859,1001.49"
         style="fill:#656263;fill-opacity:1;fill-rule:nonzero;stroke:none"
         id="path2419" /><path
         d="M 22.5859,1001.49 C 22.5859,1092.27 96.1797,1165.87 186.965,1165.87 C 277.746,1165.87 351.34,1092.27 351.34,1001.49 C 351.34,910.711 277.746,837.121 186.965,837.121 C 96.1797,837.121 22.5859,910.711 22.5859,1001.49 z"
         style="fill:none;stroke:#ffffff;stroke-opacity:1;stroke-width:35.156;stroke-linecap:butt;stroke-linejoin:miter;stroke-miterlimit:3.86369;stroke-dasharray:none"
         id="path2421" /><path
         d="M 1539.67,2135.11 C 1539.67,2225.9 1613.26,2299.49 1704.05,2299.49 C 1794.83,2299.49 1868.42,2225.9 1868.42,2135.11 C 1868.42,2044.33 1794.83,1970.74 1704.05,1970.74 C 1613.26,1970.74 1539.67,2044.33 1539.67,2135.11"
         style="fill:#656263;fill-opacity:1;fill-rule:nonzero;stroke:none"
         id="path2423" /><path
         d="M 1539.67,2135.11 C 1539.67,2225.9 1613.26,2299.49 1704.05,2299.49 C 1794.83,2299.49 1868.42,2225.9 1868.42,2135.11 C 1868.42,2044.33 1794.83,1970.74 1704.05,1970.74 C 1613.26,1970.74 1539.67,2044.33 1539.67,2135.11 z"
         style="fill:none;stroke:#ffffff;stroke-opacity:1;stroke-width:35.156;stroke-linecap:butt;stroke-linejoin:miter;stroke-miterlimit:3.86369;stroke-dasharray:none"
         id="path2425" /><path
         d="M 1208.91,1291.57 C 1208.91,1448.42 1336.06,1575.57 1492.91,1575.57 C 1649.77,1575.57 1776.92,1448.42 1776.92,1291.57 C 1776.92,1134.71 1649.77,1007.56 1492.91,1007.56 C 1336.06,1007.56 1208.91,1134.71 1208.91,1291.57 z"
         style="fill:none;stroke:#ffffff;stroke-opacity:1;stroke-width:78.129;stroke-linecap:butt;stroke-linejoin:miter;stroke-miterlimit:3.86369;stroke-dasharray:none"
         id="path2427" /><path
         d="M 1208.91,1291.57 C 1208.91,1448.42 1336.06,1575.57 1492.91,1575.57 C 1649.77,1575.57 1776.92,1448.42 1776.92,1291.57 C 1776.92,1134.71 1649.77,1007.56 1492.91,1007.56 C 1336.06,1007.56 1208.91,1134.71 1208.91,1291.57"
         style="fill:#fedd03;fill-opacity:1;fill-rule:nonzero;stroke:none"
         id="path2429" /><path
         d="M 1387.51,1027.69 C 1387.51,1184.54 1514.66,1311.7 1671.52,1311.7 C 1828.37,1311.7 1955.52,1184.54 1955.52,1027.69 C 1955.52,870.84 1828.37,743.688 1671.52,743.688 C 1514.66,743.688 1387.51,870.84 1387.51,1027.69 z"
         style="fill:none;stroke:#ffffff;stroke-opacity:1;stroke-width:78.129;stroke-linecap:butt;stroke-linejoin:miter;stroke-miterlimit:3.86369;stroke-dasharray:none"
         id="path2431" /><path
         d="M 1387.51,1027.69 C 1387.51,1184.54 1514.66,1311.7 1671.52,1311.7 C 1828.37,1311.7 1955.52,1184.54 1955.52,1027.69 C 1955.52,870.84 1828.37,743.688 1671.52,743.688 C 1514.66,743.688 1387.51,870.84 1387.51,1027.69"
         style="fill:#fedd03;fill-opacity:1;fill-rule:nonzero;stroke:none"
         id="path2433" /><path
         d="M 986.285,1087.45 C 986.285,1244.31 1113.44,1371.46 1270.29,1371.46 C 1427.15,1371.46 1554.3,1244.31 1554.3,1087.45 C 1554.3,930.602 1427.15,803.449 1270.29,803.449 C 1113.44,803.449 986.285,930.602 986.285,1087.45 z"
         style="fill:none;stroke:#ffffff;stroke-opacity:1;stroke-width:78.129;stroke-linecap:butt;stroke-linejoin:miter;stroke-miterlimit:3.86369;stroke-dasharray:none"
         id="path2435" /><path
         d="M 986.285,1087.45 C 986.285,1244.31 1113.44,1371.46 1270.29,1371.46 C 1427.15,1371.46 1554.3,1244.31 1554.3,1087.45 C 1554.3,930.602 1427.15,803.449 1270.29,803.449 C 1113.44,803.449 986.285,930.602 986.285,1087.45"
         style="fill:#fedd03;fill-opacity:1;fill-rule:nonzero;stroke:none"
         id="path2437" /><path
         d="M 1086.93,788.449 C 1086.93,945.305 1214.08,1072.46 1370.94,1072.46 C 1527.79,1072.46 1654.94,945.305 1654.94,788.449 C 1654.94,631.598 1527.79,504.445 1370.94,504.445 C 1214.08,504.445 1086.93,631.598 1086.93,788.449 z"
         style="fill:none;stroke:#ffffff;stroke-opacity:1;stroke-width:78.129;stroke-linecap:butt;stroke-linejoin:miter;stroke-miterlimit:3.86369;stroke-dasharray:none"
         id="path2439" /><path
         d="M 1086.93,788.449 C 1086.93,945.305 1214.08,1072.46 1370.94,1072.46 C 1527.79,1072.46 1654.94,945.305 1654.94,788.449 C 1654.94,631.598 1527.79,504.445 1370.94,504.445 C 1214.08,504.445 1086.93,631.598 1086.93,788.449"
         style="fill:#fedd03;fill-opacity:1;fill-rule:nonzero;stroke:none"
         id="path2441" /></g></g></svg>