<?xml version="1.0" encoding="utf-8"?>
<!-- Generator: Adobe Illustrator 14.0.0, SVG Export Plug-In . SVG Version: 6.00 Build 43363)  -->
<!DOCTYPE svg PUBLIC "-//W3C//DTD SVG 1.1//EN" "http://www.w3.org/Graphics/SVG/1.1/DTD/svg11.dtd">
<svg version="1.1" id="Layer_1" xmlns="http://www.w3.org/2000/svg" xmlns:xlink="http://www.w3.org/1999/xlink" x="0px" y="0px"
	 width="612px" height="249.5px" viewBox="0 0 612 249.5" enable-background="new 0 0 612 249.5" xml:space="preserve">
<g>
	<path fill-rule="evenodd" clip-rule="evenodd" fill="#006543" d="M559.699,54.599c4.227,0,7.644-3.362,7.644-7.583
		c0-4.182-3.417-7.544-7.644-7.544c-4.246,0-7.662,3.362-7.662,7.544C552.037,51.237,555.453,54.599,559.699,54.599L559.699,54.599z
		 M559.699,53.367c-3.613,0.02-6.418-2.736-6.418-6.332c0-3.538,2.805-6.333,6.418-6.333c3.635,0,6.399,2.794,6.399,6.333
		C566.099,50.611,563.334,53.387,559.699,53.367L559.699,53.367z M560.746,47.426c1.481-0.039,2.706-0.645,2.706-2.385
		c0.02-0.703-0.355-1.465-0.987-1.817c-0.632-0.469-1.363-0.469-2.074-0.469h-3.752v8.502h1.205v-3.831h1.658l2.43,3.831h1.382
		L560.746,47.426L560.746,47.426z M557.844,46.507v-2.833h2.31c1.047,0,2.074,0.137,2.074,1.329c0,1.681-1.738,1.505-2.923,1.505
		H557.844L557.844,46.507z"/>
	<polygon fill="#006543" points="43.41,164.789 43.41,176.29 56.126,176.29 56.126,223.543 69.011,223.543 69.011,176.123 
		81.728,176.123 81.728,164.789 43.41,164.789 	"/>
	<path fill-rule="evenodd" clip-rule="evenodd" fill="#006543" d="M88.147,164.706v58.837h12.548v-24.835l15.748,24.835h15.328
		l-17.181-25.002c3.707-0.833,4.885-1.25,6.569-2.333c4.716-3,6.822-8.751,6.822-14.084c0-1.584-0.168-5.917-2.78-9.835
		c-3.79-5.833-10.022-7.249-16.422-7.5c-1.6-0.083-3.115-0.083-4.716-0.083H88.147L88.147,164.706z M100.779,174.957h4.379
		c3.116,0.083,6.317,0.333,8.506,2.833c1.601,1.834,1.685,4,1.685,4.834c0,2.083-0.673,3.417-1.095,4.167
		c-1.937,3.333-5.39,3.584-8.842,3.666h-4.633V174.957L100.779,174.957z"/>
	<polygon fill="#006543" points="137.713,164.706 137.713,223.543 171.399,223.543 171.399,211.792 150.599,211.792 
		150.599,199.208 170.979,199.208 170.979,187.791 150.599,187.791 150.599,176.123 171.484,176.123 171.484,164.706 
		137.713,164.706 	"/>
	<polygon fill="#006543" points="183.87,164.789 183.87,223.543 196.838,223.543 196.838,198.875 218.397,198.875 218.397,187.374 
		196.838,187.374 196.838,175.957 218.397,175.957 218.397,164.789 183.87,164.789 	"/>
	<polygon fill="#006543" points="226.417,164.789 226.417,223.543 239.386,223.543 239.386,198.875 260.945,198.875 
		260.945,187.374 239.386,187.374 239.386,175.957 260.945,175.957 260.945,164.789 226.417,164.789 	"/>
	<polygon fill="#006543" points="289.009,164.873 289.009,223.461 297.515,223.461 297.515,196.292 324.295,196.292 
		324.295,223.543 332.971,223.543 332.971,164.706 324.212,164.706 324.212,188.374 297.599,188.374 297.599,164.873 
		289.009,164.873 	"/>
	<path fill-rule="evenodd" clip-rule="evenodd" fill="#006543" d="M343.665,193.208c-0.252,9.334,3.79,18.25,10.948,24.001
		c2.779,2.251,9.937,7.084,19.959,7.084c12.464,0,23.666-7,28.634-18.668c2.189-4.999,2.442-9.417,2.442-11.418
		c0-9.167-4.294-18-11.368-23.584c-2.78-2.167-9.771-6.834-19.708-6.834c-8.421,0-16.674,3.334-22.485,9.417
		C346.949,178.541,343.918,185.874,343.665,193.208L343.665,193.208z M352.255,193.041c0.422-8.918,6.064-14.334,8.506-16.167
		c3.875-3,8.844-4.585,13.812-4.585c8.843,0,17.012,4.918,20.633,13.086c0.59,1.332,1.854,4.666,1.854,8.832
		c0,6.751-3.285,13.168-8.59,17.251c-5.475,4.168-11.37,4.585-13.896,4.585c-6.737,0-13.39-3.084-17.602-8.334
		C353.687,203.625,352.004,198.208,352.255,193.041L352.255,193.041z"/>
	<polygon fill="#006543" points="407.586,164.873 407.586,173.124 421.65,173.124 421.65,223.543 430.072,223.543 430.072,173.124 
		444.221,173.124 444.221,164.873 407.586,164.873 	"/>
	<polygon fill="#006543" points="452.136,164.873 452.136,223.543 484.308,223.543 484.308,215.459 460.643,215.459 
		460.643,195.291 484.476,195.291 484.476,187.374 460.727,187.374 460.727,173.124 484.645,173.124 484.645,164.873 
		452.136,164.873 	"/>
	<polygon fill="#006543" points="497.781,164.873 497.781,223.543 524.478,223.543 524.478,215.626 506.371,215.626 
		506.371,164.873 497.781,164.873 	"/>
	<path fill="#006543" d="M566.166,173.372c-1.685-2.166-3.031-3.916-5.222-5.583c-4.716-3.666-9.769-4.083-11.958-4.083
		c-7.159,0-11.454,3.583-13.222,5.583c-3.285,3.668-3.706,8.084-3.706,9.834c0,3.001,1.01,8.501,7.41,12.502
		c3.875,2.416,8.338,3.5,12.381,5.666c3.874,2.084,6.82,4.918,6.82,9.501c0,3.916-2.357,7.584-5.979,9.167
		c-0.588,0.25-2.272,0.834-4.209,0.834c-4.128,0-7.749-2.333-9.938-5.501c-0.758-1.166-1.601-2.749-2.695-5.584l-8,1.751
		c1.6,4.916,3.116,8.833,7.158,12.334c5.053,4.333,10.779,4.75,13.137,4.75c8.254,0,15.075-4.668,18.023-12.25
		c1.095-3.001,1.18-5.084,1.18-6.418c0-2.833-0.675-8.251-6.401-12.751c-1.516-1.166-2.863-1.916-4.548-2.833l-10.863-5.418
		c-0.843-0.415-4.801-2.082-4.801-6.166c0-1.334,0.675-5.084,4.464-6.751c1.179-0.5,2.273-0.666,3.536-0.75
		c2.358,0,5.222,0.583,8.254,4.167c0.589,0.75,1.179,1.501,1.684,2.251L566.166,173.372L566.166,173.372z"/>
	<path fill="#006543" d="M43,146.662h96.309c29.68-50.087,282.33,0.549,334.762,0.549c40.427,0,79.912-7.899,91.574-19.837
		c-40.879,16.974-126.074,8.347-255.579-25.88c-53.471-14.61-105.805-18.665-156.996-12.163C96.242,97.59,59.55,116.861,43,146.662
		L43,146.662z"/>
	<path fill="#8EAA5E" d="M234.002,81.656c28.733,0.831,62.532,7.171,101.392,19.021c48.146,13.232,87.935,22.087,123.912,24.656
		c-60.063-19.022-114.504-44.707-149.24-53.801C280.124,66.274,254.769,69.648,234.002,81.656L234.002,81.656z"/>
	<path fill="#F7941E" d="M471.195,88.901c0-5.842,4.786-10.578,10.689-10.578s10.688,4.736,10.688,10.578
		c0,5.842-4.785,10.577-10.688,10.577S471.195,94.743,471.195,88.901L471.195,88.901z"/>
	<path fill="#FFD768" d="M408.517,87.014c8.55-8.601,20.726-13.312,34.325-10.082c11.01,2.615,18.025,5.042,24.028,9.953
		c-0.103,0.705-0.156,1.426-0.156,2.159c0,4.576,2.073,8.677,5.35,11.451c-8.713,7.091-22.151,10.382-34.371,6.941
		C423.42,103.417,414.659,96.658,408.517,87.014L408.517,87.014z"/>
	<path fill="#FFD768" d="M418.03,53.684c11.563-3.822,26.115-1.155,35.208,6.431c8.041,6.708,13.441,12.269,16.783,19.571
		c-2.071,2.575-3.308,5.825-3.308,9.358c0,1.92,0.365,3.757,1.03,5.447c-11.101,1.808-24.854-2.113-33.084-9.496
		C424.359,75.755,419.079,65.036,418.03,53.684L418.03,53.684z"/>
	<path fill="#FFD768" d="M448.063,20.076c11.986,2.205,21.528,11.38,25.986,22.594c4.398,11.065,6.905,21.395,6.244,31.358
		c-5.779,0.677-10.576,4.484-12.577,9.642c-9.037-5.952-17.044-17.762-20.443-28.239C443.022,42.331,443.419,30.508,448.063,20.076
		L448.063,20.076z"/>
	<path fill="#FFD768" d="M491.696,9c9.267,7.841,13.513,22.605,11.629,36.786c-1.893,14.243-5.536,23.387-12.119,31.016
		c-2.545-1.813-5.676-2.882-9.063-2.882c-2.145,0-4.187,0.429-6.043,1.204c-4.513-10.172-5.494-24.89-2.968-35.901
		C476.211,25.807,482.404,15.737,491.696,9L491.696,9z"/>
	<path fill="#FFD768" d="M536.688,27.007c3.862,11.443-0.491,28.903-9.487,40.099c-9.503,11.826-18.887,18.363-29.69,20.569
		c-0.545-5.957-4.613-10.917-10.147-12.867c2.308-10.941,9.355-23.646,16.378-31.726C513.362,33.15,525.216,28.045,536.688,27.007
		L536.688,27.007z"/>
	<path fill="#FFD768" d="M566.863,73.729c-4.11,12.136-19.07,24.183-33.913,27.985c-16.706,4.278-28.526,3.357-39.271-2.626
		c2.423-2.671,3.895-6.189,3.895-10.045c0-2.516-0.626-4.888-1.735-6.976c8.608-7.653,21.736-13.776,32.729-15.54
		C543.127,64.192,556.474,67.361,566.863,73.729L566.863,73.729z"/>
	<path fill="#FFD768" d="M568.537,114.655c-9.07,9.124-28.271,13.172-43.297,10.15c-18.238-3.669-30.209-10.144-37.572-21.636
		c4.922-1.85,8.631-6.101,9.635-11.29c11.835-3.574,28.192-3.347,39.43,0.008C550.854,96.104,562.021,104.424,568.537,114.655
		L568.537,114.655z"/>
	<path fill="#FDB913" d="M427.003,76.681c4.94-1.062,10.27-1.07,15.839,0.251c11.01,2.615,18.025,5.042,24.028,9.953
		c-0.103,0.705-0.156,1.426-0.156,2.159c0,1.92,0.365,3.757,1.03,5.447c-11.101,1.808-24.854-2.113-33.084-9.496
		C431.699,82.339,429.153,79.561,427.003,76.681L427.003,76.681z"/>
	<path fill="#FDB913" d="M447.589,56.368c2.038,1.068,3.94,2.32,5.649,3.746c8.041,6.708,13.441,12.269,16.783,19.571
		c-0.962,1.196-1.743,2.537-2.305,3.985C458.947,77.896,451.149,66.605,447.589,56.368L447.589,56.368z"/>
	<path fill="#FDB913" d="M472.936,40.127c0.4,0.834,0.772,1.682,1.114,2.542c4.398,11.065,6.905,21.395,6.244,31.358
		c-1.472,0.172-2.879,0.547-4.193,1.097C471.71,65.229,470.662,51.03,472.936,40.127L472.936,40.127z"/>
	<path fill="#FDB913" d="M487.363,74.808c2.291-10.866,9.259-23.472,16.232-31.559c-0.068,0.846-0.159,1.693-0.271,2.537
		c-1.893,14.243-5.536,23.387-12.119,31.016C490.038,75.97,488.746,75.295,487.363,74.808L487.363,74.808z"/>
	<path fill="#FDB913" d="M527.516,66.709l-0.314,0.396c-9.503,11.826-18.887,18.363-29.69,20.569
		c-0.183-2.007-0.768-3.902-1.673-5.606C504.173,74.658,516.746,68.682,527.516,66.709L527.516,66.709z"/>
	<path fill="#FDB913" d="M546.828,95.827c-4.4,2.625-9.146,4.675-13.878,5.888c-16.706,4.278-28.527,3.357-39.271-2.626
		c1.813-2,3.095-4.474,3.624-7.209c11.835-3.574,28.192-3.348,39.43,0.007C540.295,92.951,543.669,94.276,546.828,95.827
		L546.828,95.827z"/>
</g>
</svg>
